<svg xmlns="http://www.w3.org/2000/svg" x="0px" y="0px" width="15" height="15" viewBox="0 0 172 172" style=" fill:#000000;"><g fill="none" fill-rule="nonzero" stroke="none" stroke-width="1" stroke-linecap="butt" stroke-linejoin="miter" stroke-miterlimit="10" stroke-dasharray="" stroke-dashoffset="0" font-family="none" font-weight="none" font-size="none" text-anchor="none" style="mix-blend-mode: normal"><path d="M0,172v-172h172v172z" fill="none"></path><g fill="#7f7d76"><path d="M37.625,28.66667c-12.79944,0 -23.29167,10.49222 -23.29167,23.29167v68.08333c0,12.79944 10.49222,23.29167 23.29167,23.29167h96.75c12.79944,0 23.29167,-10.49222 23.29167,-23.29167v-68.08333c0,-12.79944 -10.49222,-23.29167 -23.29167,-23.29167zM37.625,39.41667h96.75c6.98772,0 12.54167,5.55394 12.54167,12.54167v3.96126l-60.91667,32.92887l-60.91667,-32.92887v-3.96126c0,-6.98772 5.55394,-12.54167 12.54167,-12.54167zM25.08333,68.13932l58.36214,31.55013c1.59419,0.86101 3.51486,0.86101 5.10905,0l58.36214,-31.55013v51.90234c0,6.98772 -5.55394,12.54167 -12.54167,12.54167h-96.75c-6.98772,0 -12.54167,-5.55394 -12.54167,-12.54167z"></path></g></g></svg>